<svg fill="none" height="400" viewBox="0 0 1040 400" width="1040" xmlns="http://www.w3.org/2000/svg"><path d="m0 0h1040v400h-1040z" fill="#43a670"/><path d="m625.75 104.912v16.2" stroke="#051627" stroke-linecap="round" stroke-linejoin="round" stroke-miterlimit="10" stroke-width="1.2"/><path d="m212.35 154.512s-2.4-2.8-12.4 3.9c-9.9 6.7-26 20.8-30.3 21s-22.737 7.294-20.137 19.294 27.537 74.606 26.637 101.706c-.9 27-.6 55.3-.6 55.3l57 .4s-5.6-27.8-8.3-45.8-4.7-28.3 2.1-39 13.6-29.9 15.1-42.5 2.6-27 4.4-34.3c1.9-7.3-.7-11.9-2.4-18.6s-2.1-17.4-8.3-17.4c-7.7-.1-12.6 10.2-12.6 10.2-.3-1.2-5.9-11.7-10.2-14.2z" style="fill:#d8ffe0;stroke:#051627;stroke-width:1.2;stroke-miterlimit:10;stroke-linecap:round;stroke-linejoin:round"/><path d="m222.549 168.588s-1.499 4.924-1.899 15.924c-.3 11-4.3 26.3-9 28.1-4.6 1.7-4.5-1.2-6.7-2.9s-14.1-9-25.1-9.8" stroke="#051627" stroke-linecap="round" stroke-linejoin="round" stroke-miterlimit="10" stroke-width="1.2"/><path d="m196.05 204.612s.4-2.8.6-3.2 4.3-5.1 4.9-8.1c0 0 3.2 3.4 5.9.7v2s-2.6 2.2-1.4 14.8c0-.1-6.8-5.5-10-6.2z" fill="#051627"/><path d="m211.75 168.512s.1 11.4-4.3 17.3c-2.5 3.3-7.5 4.2-11.4 4.3-3.1.1-5.4-.3-5.4-.3" stroke="#051627" stroke-linecap="round" stroke-linejoin="round" stroke-miterlimit="10" stroke-width="1.2"/><path d="m194.688 190.12c.56 2.496.388 8.366-4.777 11.878" stroke="#000" stroke-width="1.2"/><path d="m218.65 189.212s-8.9 4.2-11.2-3.4" stroke="#051627" stroke-linecap="round" stroke-linejoin="round" stroke-miterlimit="10" stroke-width="1.2"/><path d="m206.05 210.712s-3-10.5 4-21.3" stroke="#051627" stroke-linecap="round" stroke-linejoin="round" stroke-miterlimit="10" stroke-width="1.2"/><path d="m201.146 192.178.604 2.534" stroke="#051627" stroke-linecap="round" stroke-linejoin="round" stroke-miterlimit="10" stroke-width="1.2"/><path d="m227.75 171.312c-.4 0 1-10.2 2.8-13.5s3.73-6.099 7.93-4.899c4.1 1.2 4.77 17.299 3.97 22.799 0 0-2.6-4.9-14.7-4.4z" fill="#051627"/><path d="m227.65 189.412s6.2 3.3 13.6 3.3" stroke="#051627" stroke-linecap="round" stroke-linejoin="round" stroke-miterlimit="10" stroke-width="1.2"/><path d="m170.95 179.112s-14.9 8.8-14.9 15.6 4.9 13.1 4.9 13.1" stroke="#051627" stroke-linecap="round" stroke-linejoin="round" stroke-miterlimit="10" stroke-width="1.2"/><path d="m207.75 213.112c.2-.3-10.2-.9-15.2 1.9" stroke="#051627" stroke-linecap="round" stroke-linejoin="round" stroke-miterlimit="10" stroke-width="1.2"/><path d="m169.433 333.654-2.5-26.1s20.7-12.5 55.4-17.5l6.933 37.604s-42.133-3.704-59.833 5.996z" fill="#051627"/><path d="m285.921 321.827c95.948 25.807 200.332 35.655 256.663 34.143 0 0-338.696.075-406.899.075 0 0 54.159-60.059 150.236-34.218z" style="fill:#d8ffe0;stroke:#051627;stroke-width:1.2;stroke-miterlimit:10;stroke-linecap:round;stroke-linejoin:round"/><path d="m501.95 355.512-23.9.6-149-280.1997c-2.9-5.5-1-12.1001 4.2-14.8001s11.9-.5 14.8 5z" stroke="#051627" stroke-linecap="round" stroke-linejoin="round" stroke-miterlimit="10" stroke-width="1.2"/><path d="m492.45 357.012-10.9-6.3-147.5-279.5997c-.3-.6-.4-1.2-.5-1.8-.5-3.2 3.7-4.9 5.6-2.3.5.6 1 1.5 1.5 2.5z" fill="#d8ffe0"/><path d="m448.45 254.812c3.3-.8 11.7-33.4 55.1-44.7 43.5-11.3-12.1 58.1 26.1 57.9 38.1-.2 90-58.8 134.2-50.5s56.2 46.9 56.2 46.9 36.2-61.8-8.1-96.3-72.9-46-57.1-80.7998c0 0-37.1-24.3999-109.1 14.1998-72 38.6-54.546-24.1317-74.2-45.2998-30.717-33.0828-94.7 2.5-110.3 34.6z" fill="#051627"/><path d="m467.548 354.874s18.1-99.7 17.6-117.3-3.1-16.5-5.3-20.4-13.3-25.2-14.7-33-3.1-20.4-10.8-28.6-12.9-15.6.9-15.2c13.8.3 18.7 13.8 21.8 22.1s5.8 11.9 10.3 9.6c4.6-2.3 10.4-8.1 12.2-13.9 1.8-5.7 11.7-56.2 17.6-65.8001 5.9-9.6 8.8-10.6 12.2-8.5 3.5 2.1 2.5 9.5-1 19.0001-3.5 9.5-7.2 37-6.3 42.3s4.4 4.6 6.3.9c1.8-3.7 20.8-45.8 25-52.9001 4.2-7.1 13.1-7.1 13.7-2.2s-18.8 46.9001-21.1 53.5001c-2.3 6.5-6.4 10.6-3.1 12s26-36.2 29.4-40.3c3.4-4 8.4-8.7 12.1-2.5s-10.4 24.6-13.7 31.6-17 23-16.4 27.3 7.7-.5 12.4-3.2c4.7-2.6 21.7-18.7 28.5-20.5s6 6.1 3.4 9.5-39.4 36.3-42.6 42.1c-3.2 5.9-15.6 22.1-20.3 28-4.7 5.8-.9 126.5-.9 126.5h-67.2z" style="fill:#43a670;stroke:#051627;stroke-width:1.2;stroke-miterlimit:10;stroke-linecap:round;stroke-linejoin:round"/><path d="m485.548 172.474s-8 6-9.1 11.4" stroke="#051627" stroke-linecap="round" stroke-linejoin="round" stroke-miterlimit="10" stroke-width="1.2"/><path d="m498.448 161.274c.6.4 13.8 9.5 14.2 30.4.3 18.4-7.8 24.4-7.8 24.4" stroke="#051627" stroke-linecap="round" stroke-linejoin="round" stroke-miterlimit="10" stroke-width="1.2"/><path d="m561.948 190.974s-5.5-6.1-6.1-13.5" stroke="#051627" stroke-linecap="round" stroke-linejoin="round" stroke-miterlimit="10" stroke-width="1.2"/><path d="m552.648 169.674s-3.7-2.4-5.7-6.7" stroke="#051627" stroke-linecap="round" stroke-linejoin="round" stroke-miterlimit="10" stroke-width="1.2"/><path d="m534.548 230.674s-9.6 10-20.4 1.3-16.3-.1-22.4-4.7" stroke="#051627" stroke-linecap="round" stroke-linejoin="round" stroke-miterlimit="10" stroke-width="1.2"/><path d="m361.85 356.012s1.6-1.8 1.2-26.1c-.1-8.5-1-15.7-3.1-19.7-8.1-15.7-9.9-13.5-13.6-16.1-3.7-2.5-22.8-17-27.5-23.4s-11.6-17.1-22.1-21.1c-10.4-4-18.3-8.5-5.8-14.1 12.6-5.7 22.8 4.4 29.2 10.5 6.4 6.2 10.3 8.2 13.5 4.2 3.1-4.1 5.9-11.8 5-17.8s-13.8-55.7-12.6-67 3.3-13.3 7.3-12.9 6.3 7.5 7.3 17.5 9.5 36.4 12.6 40.9 6 2.2 6-1.9c.1-4.1-1-50.2-.4-58.5s8.7-12.1 11.4-7.9 3.3 50.5 4 57.4-1.2 12.3 2.4 12.1c3.5-.1 7.8-43.9 9.1-49s3.8-11.5 9.9-7.5 1.2 26.6 1.3 34.4c.1 7.7-5.4 28.1-3 31.8s6.7-3.8 9.8-8.2 11.5-26.3 16.8-30.8c5.3-4.6 8 2.9 7.1 7.1s-19.9 49.8-20.2 56.4c-.3 6.7-.1 28.1-1.8 35.4-1.8 7.3 5.9 74.4 5.9 74.4h-49.7z" style="fill:#d8ffe0;stroke:#051627;stroke-width:1.2;stroke-miterlimit:10;stroke-linecap:round;stroke-linejoin:round"/><path d="m332.484 251.553s-4.834 8.559-3.534 13.959" stroke="#051627" stroke-linecap="round" stroke-linejoin="round" stroke-miterlimit="10" stroke-width="1.2"/><path d="m339.05 235.612c.7.1 16.5 2.6 25.9 21.3 8.3 16.5 3.5 25.4 3.5 25.4" stroke="#051627" stroke-linecap="round" stroke-linejoin="round" stroke-miterlimit="10" stroke-width="1.2"/><path d="m409.15 234.912s-7.6-3.1-11.3-9.5" stroke="#051627" stroke-linecap="round" stroke-linejoin="round" stroke-miterlimit="10" stroke-width="1.2"/><path d="m391.55 219.812s-4.4-.6-8-3.6" stroke="#051627" stroke-linecap="round" stroke-linejoin="round" stroke-miterlimit="10" stroke-width="1.2"/><path d="m405.75 281.512s-8.6 14.3-22 11c-13.5-3.2-14.7 6.9-22.2 5.4" stroke="#051627" stroke-linecap="round" stroke-linejoin="round" stroke-miterlimit="10" stroke-width="1.2"/><path d="m359.15 196.812s9 2 15-.5l.4 5.8s-8.6 2.9-15.3 0z" fill="#051627"/><path d="m59.65 356.112h920.7" stroke="#051627" stroke-linecap="round" stroke-linejoin="round" stroke-miterlimit="10" stroke-width="1.2"/><path d="m754.517 142.312s-8.5-1.5-12 4.4-5.2 6.7 1 10.9c2.2 1.5 1 .7 8.3 5.6 2.2 1.5 17.2 2.3 24.3 5 7 2.7 17.2 9.7 30.5 8.5s15.5-4.3 20.9.1 10.6 39.7 9 55.4c-1.5 15.7.1 73.1 4.4 87 0 0-55.2-13.3-86.4 0-29.4 12.6-44.6-3.7-67.6-11.6-38-13-35.4 8.2-35.4 8.2l-17.6 39.9 119.1.2 171.9.2c-.5-5.9-2.3-12.9-5.7-20.7-9.1-20.2-51-166.4-51.4-174.8s-21-19.8-26.7-29.3-19.07-28.32-25.1-34.0998c-3.346-3.2071-7.1.9-11.4-3.3s-6.3 1.4-10.9-1.4c-4.5-2.9-4.9-2.7-10.9-.2s-36.9 22.0998-38.2 29.2998 9.9 20.7 9.9 20.7z" style="fill:#d8ffe0;stroke:#051627;stroke-width:1.2;stroke-miterlimit:10;stroke-linecap:round;stroke-linejoin:round"/><path d="m758.255 129.713s3.695 2.799 1.995 4.799c-1.6 2-5.4 3.4-5.4 3.4" stroke="#051627" stroke-linecap="round" stroke-linejoin="round" stroke-miterlimit="10" stroke-width="1.2"/><path d="m752.95 155.912c-.7-6.8 3.8-12.7 3.8-12.7s1.4.7 11.2.4 12.6-6.9 12.6-6.9" stroke="#051627" stroke-linecap="round" stroke-linejoin="round" stroke-miterlimit="10" stroke-width="1.2"/><path d="m777.35 109.112s-1.487 7.456 2.413 12.656c0 0-10.813 5.744-17.813 7.544-6.9 1.9-8.1-3.7-8.1-3.7" stroke="#051627" stroke-linecap="round" stroke-linejoin="round" stroke-miterlimit="10" stroke-width="1.2"/><path d="m771.85 116.512s2.3 4.4 7.2 4.2" stroke="#051627" stroke-linecap="round" stroke-linejoin="round" stroke-miterlimit="10" stroke-width="1.2"/><path d="m760.65 134.512s10.3-2.8 13.9-.1c3.6 2.8 5 3.8 5 3.8s4.4-1.9 3.2-9.5-3.7-8.1-3.7-8.1-11.5 8.8-20 9.3c0 .1 1.8 2.5 1.6 4.6z" fill="#051627"/><path d="m840.81 319.036s4.9 11.9 20.8 21.6" stroke="#051627" stroke-linecap="round" stroke-linejoin="round" stroke-miterlimit="10" stroke-width="1.2"/><path d="m752.25 144.612s-3.2 9.9-3.1 12.8c0 0-8.2-1.5-10.9-5.2-1.7-2.2-1.9-9.2 6.7-9s7.3 1.4 7.3 1.4z" fill="#051627"/><path d="m756.933 143.309-2.541-1.015" stroke="#051627" stroke-linecap="round" stroke-linejoin="round" stroke-miterlimit="10" stroke-width="1.2"/><path d="m834.05 197.312s27.7 1 40-10.8l2.6 9.6s-11.8 10.6-41.2 10.2z" fill="#051627"/><path d="m888.15 282.212-13.6 15.5s-9-.9-10.4-7.2c0 0-7.3-.2-9.5-8.6s3.3-12.4 3.3-12.4-3.7-7.2 2.4-12.6l22.187 4.426" stroke="#051627" stroke-linecap="round" stroke-linejoin="round" stroke-miterlimit="10" stroke-width="1.2"/><path d="m882.95 276.212-21.3 3.2 20-8.7z" fill="#051627"/><path d="m881.26 261.08-21.188-4.307s-3.8-8.2 1-12.6c0 0-3.5-6.5 2.7-12.5 6.2-6.1 12.4-3.4 12.4-3.4s2.5-3.8 6.9-4.7" stroke="#051627" stroke-linecap="round" stroke-linejoin="round" stroke-miterlimit="10" stroke-width="1.2"/><path d="m886.35 257.212-13.6-16.7 17.6 12.8z" fill="#051627"/><path d="m888.15 282.212-13.4 15.5s1.3 9 7.7 10c0 0 .6 7.3 9 9.1s12.3-3.8 12.3-3.8 2.8 2.3 7 .6" stroke="#051627" stroke-linecap="round" stroke-linejoin="round" stroke-miterlimit="10" stroke-width="1.2"/><path d="m895.65 284.512-2.3 20.9 7.8-20.3z" fill="#051627"/><path d="m901.75 284.212c-8.6 2.5-17.3-2.5-19.9-11-2.5-8.6 2-17.5 10.6-20" stroke="#051627" stroke-linecap="round" stroke-linejoin="round" stroke-miterlimit="10" stroke-width="1.2"/><path d="m899.75 276.412c-4.3 1.3-8.8-1.2-10.1-5.5s1.2-8.8 5.5-10.1z" fill="#051627"/><g stroke="#051627"><path d="m833.15 103.912 1.9-15.1998" stroke-linecap="round" stroke-linejoin="round" stroke-miterlimit="10" stroke-width="1.2"/><path d="m839.55 110.112 16.7-14.4998" stroke-linecap="round" stroke-linejoin="round" stroke-miterlimit="10" stroke-width="1.2"/><path d="m845.55 118.212 15.2-1.7" stroke-linecap="round" stroke-linejoin="round" stroke-miterlimit="10" stroke-width="1.2"/><path d="m632.75 356.012s6.3-25.8 2.2-44c-4-18.2 3.8-16.1-7.6-37.3s-19.9-31.1-22.6-37.4 0-17.5 7.5-25.9 13.9-15.7 13.9-15.7-.9-4.2 3.5-9.2 9.6-7.6 17.3-5.9 7.6 5.2 7.6 5.2.4-5 9.7-4.9c9.4.1 13.2 8.4 13.2 8.4s2.9-4.2 11.4-1.8c8.5 2.3 7.4 13.9 7.4 13.9s4.4-2.7 9.8 1.1 4.2 14.3 5 18.2c.8 4-2 18.3-2.8 24.7-.9 6.3-6.3 26.5-9.9 35.2s-10.8 51.9-5.6 75.5h-60z" fill="#43a670" stroke-linecap="round" stroke-linejoin="round" stroke-miterlimit="10" stroke-width="1.2"/><path d="m624.15 230.612c.5 0 8.2-1.9 11.2-8.8l3.4-3.5" stroke-linecap="round" stroke-linejoin="round" stroke-miterlimit="10" stroke-width="1.2"/><path d="m633.35 209.212s-1.8 9.3 11.3 10.7 19.3-.9 22-3.1 3.9-8.5 1.3-10.9c-2.6-2.3-15.7-7.2-19.5-10-3.7-2.9-7.9-8.3-13.1-7.5-5.1.8-9 7.2-9 7.2" stroke-linecap="round" stroke-linejoin="round" stroke-miterlimit="10" stroke-width="1.2"/><path d="m635.35 221.812s-6.1 3.2-14.6 0" stroke-linecap="round" stroke-linejoin="round" stroke-miterlimit="10" stroke-width="1.2"/><path d="m654.65 185.412v13.4" stroke-linecap="round" stroke-linejoin="round" stroke-miterlimit="10" stroke-width="1.2"/><path d="m632.75 285.112c.6.2 10.1 4 20.6 0" stroke-linecap="round" stroke-linejoin="round" stroke-miterlimit="10" stroke-width="1.2"/><path d="m693.95 297.112s-13.5 2.6-20.3-.8" stroke-linecap="round" stroke-linejoin="round" stroke-miterlimit="10" stroke-width="1.2"/><path d="m638.85 218.412s-7.2 7.5 9 16.3 26.3 28.9 17.1 42.4" stroke-linecap="round" stroke-linejoin="round" stroke-miterlimit="10" stroke-width="1.2"/><path d="m642.15 230.912s7.1 4.9 10-2.5c1.6-4.1.7-7.9.7-7.9" stroke-linecap="round" stroke-linejoin="round" stroke-miterlimit="10" stroke-width="1.2"/><path d="m677.45 189.412s-2.5 28.4-9.4 41.9c0 0-8.5 11.3-16.7-.7" stroke-linecap="round" stroke-linejoin="round" stroke-miterlimit="10" stroke-width="1.2"/></g><path d="m654.332 198.466s-4.382 5.246-2.682 11.446c0 0 11.7 6.7 17.2 6.5s7.2-2.6 7-4.4-4.088-4.949-7.288-6.749c-4.6-2.7-14.23-6.797-14.23-6.797z" fill="#d8ffe0"/><path d="m696.25 201.512s-.8 13-2 16.9c-1.3 4.5-9.9 17.8-14.1 19.9-5.7 2.9-12.2-7-12.2-7" stroke="#051627" stroke-linecap="round" stroke-linejoin="round" stroke-miterlimit="10" stroke-width="1.2"/><path d="m684.55 234.412s0 5.9 8.3 5.9c0 0 15.6-5 17.8-27.5" stroke="#051627" stroke-linecap="round" stroke-linejoin="round" stroke-miterlimit="10" stroke-width="1.2"/><path d="m480.05 270.012c-8.2 0-14.8 6.6-14.8 14.8s6.6 14.8 14.8 14.8 14.8-6.6 14.8-14.8-6.6-14.8-14.8-14.8zm0 24.8c-5.5 0-10-4.5-10-10s4.5-10 10-10 10 4.5 10 10c0 5.6-4.5 10-10 10z" fill="#d8ffe0"/><path d="m504.95 270.012c-8.2 0-14.8 6.6-14.8 14.8s6.6 14.8 14.8 14.8 14.8-6.6 14.8-14.8-6.7-14.8-14.8-14.8zm0 24.8c-5.5 0-10-4.5-10-10s4.5-10 10-10 10 4.5 10 10c0 5.6-4.5 10-10 10z" fill="#d8ffe0"/><path d="m529.95 270.012c-8.2 0-14.8 6.6-14.8 14.8s6.6 14.8 14.8 14.8 14.8-6.6 14.8-14.8c.1-8.2-6.6-14.8-14.8-14.8zm0 24.8c-5.5 0-10-4.5-10-10s4.5-10 10-10 10 4.5 10 10c.1 5.6-4.4 10-10 10z" fill="#d8ffe0"/><path d="m387.95 331.712c.9-.2 1.8-.5 2.6-.8 9.9-3.3 18.84-9.263 20.78-19.07 1.8-9.1-4.716-9.889-4.716-9.889" stroke="#051627" stroke-linecap="round" stroke-linejoin="round" stroke-miterlimit="10" stroke-width="2"/><path d="m186.15 154.612-14.2-5.8" stroke="#051627" stroke-linecap="round" stroke-linejoin="round" stroke-miterlimit="10" stroke-width="1.2"/><path d="m193.75 150.012-9.6-19.9" stroke="#051627" stroke-linecap="round" stroke-linejoin="round" stroke-miterlimit="10" stroke-width="1.2"/><path d="m480.05 292.112c3.535 0 6.4-2.865 6.4-6.4 0-3.534-2.865-6.4-6.4-6.4s-6.4 2.866-6.4 6.4c0 3.535 2.865 6.4 6.4 6.4z" fill="#d8ffe0"/><path d="m504.95 291.612c3.535 0 6.4-2.865 6.4-6.4 0-3.534-2.865-6.4-6.4-6.4s-6.4 2.866-6.4 6.4c0 3.535 2.865 6.4 6.4 6.4z" fill="#d8ffe0"/><path d="m529.95 291.612c3.535 0 6.4-2.865 6.4-6.4 0-3.534-2.865-6.4-6.4-6.4s-6.4 2.866-6.4 6.4c0 3.535 2.865 6.4 6.4 6.4z" fill="#d8ffe0"/><path d="m544.75 286.312h-79.7v70.4h79.7z" fill="#051627"/><path d="m694.15 298.812s12.2 17.7 47.7 14.9c0 0 11.2 21.2 4 42.1l-53.1.5c.1.1-5-30.4 1.4-57.5z" fill="#051627"/><path d="m499.99 187.984c-2.72-4.65-9.286-6.229-13.789-2.983-2.063 1.491-3.658 4.035-3.752 8.246-.375 12.194 9.662 24.563 18.198 14.299 5.253-6.316 2.345-14.387-.657-19.562z" fill="#d8ffe0"/><path d="m731.629 313.955s6.621 20.057.421 41.757h-5.2s6.855-24.065-.245-42.065z" fill="#d8ffe0"/><path d="m389.85 339.512c5.081 0 9.2-4.119 9.2-9.2s-4.119-9.2-9.2-9.2-9.2 4.119-9.2 9.2 4.119 9.2 9.2 9.2z" fill="#43a670"/><path d="m359.35 311.512s-9.882 6.67-5.958 13.634c5.704 10.125 21.858 9.066 31.958 7.166" stroke="#051627" stroke-linecap="round" stroke-linejoin="round" stroke-miterlimit="10" stroke-width="2"/><path d="m211.819 313.329c4.308 0 7.8-3.492 7.8-7.8s-3.492-7.8-7.8-7.8-7.8 3.492-7.8 7.8 3.492 7.8 7.8 7.8z" fill="#d8ffe0" stroke="#051627" stroke-miterlimit="10" stroke-width="1.2"/><path d="m211.519 304.529c.939 0 1.7-.761 1.7-1.7s-.761-1.7-1.7-1.7-1.7.761-1.7 1.7.761 1.7 1.7 1.7z" fill="#051627"/><path d="m212.219 309.829c.939 0 1.7-.761 1.7-1.7s-.761-1.7-1.7-1.7-1.7.761-1.7 1.7.761 1.7 1.7 1.7z" fill="#051627"/><path d="m691.271 316.761s-27.921 12.651-55.121-1.249c0 0 1.3 12.6.3 20.2 0 0 39.18 7.522 53.88-1.178 0 0 .541-13.373.941-17.773z" fill="#d8ffe0"/><path d="m603.677 341.241s21.401 2.5 31.401-17.9c0 0-23.201-4.9-31.401 17.9z" fill="#d8ffe0"/><path d="m586.777 298.516s14.3 29.1 48.3 25c0 0-12.7-33.3-48.3-25z" fill="#d8ffe0"/><path d="m547.833 153.03s6.834 2.596 10.734 9.396l1.947-2.858s-3.079-5.189-10.979-8.789z" fill="#d8ffe0"/><path d="m622.324 324.06s4.677.431 8.915-.36" stroke="#051627" stroke-linecap="round" stroke-linejoin="round" stroke-miterlimit="10" stroke-width="1.2"/></svg>